# xmcd
#
# Track frame offsets: 
#        150
#        19437
#        33487
#        48625
#        66750
#        84225
#        97875
#        112912
#        125037
#        136700
#        155400
#        167487
#        184637
#        211296
#        221496
#        244451
#        260541
#        285941
#        299155
#        319840
#        333465
#
# Disc length: 4711 seconds
#
# Revision: 0
# Processed by: cddbd v1.5.2PL0 Copyright (c) Steve Scherf et al.
# Submitted via: ExactAudioCopy v0.99pb4
#
DISCID=37126515
DTITLE=Leonard Cohen - New Skin For The Old Ceremony|Songs Of Leonard 
DTITLE=Cohen
DYEAR=1900
DGENRE=
TTITLE0=Is This What You Wanted
TTITLE1=Chelsea Hotel #2
TTITLE2=Lover Lover Lover
TTITLE3=Field Commander Cohen
TTITLE4=Why Don`t You Try
TTITLE5=There Is A War
TTITLE6=A Singer Must Die
TTITLE7=I Tried To Leave You
TTITLE8=Who By Fire
TTITLE9=Take This Longing
TTITLE10=Leaving Green Sleeves
TTITLE11=Suzanne
TTITLE12=Master Song
TTITLE13=Winter Lady
TTITLE14=The Stranger Song
TTITLE15=Sisters Of Mercy
TTITLE16=So Long, Marianne
TTITLE17=Hey, That`s No Way To Say Goodbye
TTITLE18=Stories Of The Street
TTITLE19=Teachers
TTITLE20=One Of Us Cannot Be Wrong
EXTD=
EXTT0=
EXTT1=
EXTT2=
EXTT3=
EXTT4=
EXTT5=
EXTT6=
EXTT7=
EXTT8=
EXTT9=
EXTT10=
EXTT11=
EXTT12=
EXTT13=
EXTT14=
EXTT15=
EXTT16=
EXTT17=
EXTT18=
EXTT19=
EXTT20=
PLAYORDER=
